<svg width="24" height="22" viewBox="0 0 24 22" fill="none" xmlns="http://www.w3.org/2000/svg">
    <path
        d="M23.7067 12.7261L11.2739 0.293252C10.8834 -0.0972612 10.2472 -0.0972612 9.85673 0.293252L9.14299 1.00699L8.42926 0.293252C8.03825 -0.0982399 7.40159 -0.0972612 7.01156 0.293252L0.29209 7.01273C-0.0974448 7.40324 -0.0974448 8.03843 0.292579 8.42944L12.7254 20.8622C12.9206 21.0575 13.1776 21.1554 13.434 21.1554C13.6904 21.1554 13.9473 21.0575 14.1426 20.8622L14.8566 20.1483L15.5706 20.8622C15.7658 21.0575 16.0227 21.1554 16.2792 21.1554C16.5356 21.1554 16.7925 21.0575 16.9878 20.8622L23.7067 14.1433C24.0978 13.7528 24.0978 13.1166 23.7067 12.7261ZM13.434 20.1536L1.00118 7.72084L7.72017 1.00136L20.153 13.4347L13.434 20.1536ZM16.2792 20.1536L15.5652 19.4397L20.8616 14.1433C21.2526 13.7528 21.2526 13.1166 20.8616 12.7261L9.85114 1.71519L10.5648 1.00136L22.9981 13.4347L16.2792 20.1536Z"
        fill="#000" />
    <path
        d="M17.461 13.4347C17.461 13.1367 17.577 12.8568 17.7879 12.6464C17.8818 12.5524 17.9347 12.4252 17.9347 12.2921C17.9347 12.1594 17.8818 12.0317 17.7879 11.9378L9.21763 3.36701C9.02971 3.1791 8.69695 3.1791 8.50903 3.36701C8.07447 3.80206 7.36636 3.80108 6.93181 3.36701C6.74389 3.1791 6.41112 3.1791 6.2232 3.36701L3.36678 6.22393C3.17103 6.41967 3.17103 6.73678 3.36678 6.93253C3.80134 7.36757 3.80134 8.0747 3.36678 8.50926C3.17103 8.70501 3.17103 9.02212 3.36678 9.21786L11.937 17.7886C12.1249 17.9765 12.4577 17.9765 12.6456 17.7886C13.0675 17.3673 13.8015 17.3668 14.2224 17.7886C14.3163 17.8826 14.4436 17.9354 14.5767 17.9354C14.7098 17.9354 14.837 17.8826 14.931 17.7886L17.7879 14.9317C17.8818 14.8377 17.9347 14.7105 17.9347 14.5774C17.9347 14.4443 17.8818 14.317 17.7879 14.2231C17.5775 14.0122 17.461 13.7323 17.461 13.4347ZM14.5346 16.7673C13.8788 16.367 12.9901 16.367 12.3334 16.7673L4.3876 8.82099C4.79671 8.14811 4.79671 7.29417 4.38711 6.6208L6.62008 4.38783C7.29394 4.79694 8.14788 4.79694 8.82076 4.38783L16.7666 12.3341C16.5664 12.662 16.4588 13.0403 16.4588 13.4347C16.4588 13.8292 16.5664 14.2069 16.7671 14.5353L14.5346 16.7673Z"
        fill="#000" />
    <path
        d="M9.08023 9.08084C8.25516 9.9064 8.25516 11.2492 9.08023 12.0748C9.49276 12.4878 10.035 12.6938 10.5777 12.6938C11.1199 12.6938 11.6621 12.4878 12.0747 12.0748C12.8997 11.2497 12.8997 9.9064 12.0747 9.08084C11.2496 8.25479 9.9053 8.25577 9.08023 9.08084ZM11.3661 11.3662C10.9315 11.8002 10.2234 11.8012 9.78883 11.3662C9.35476 10.9316 9.35476 10.224 9.78883 9.78944C10.0061 9.57216 10.2919 9.46352 10.5777 9.46352C10.863 9.46352 11.1488 9.57216 11.3661 9.78944C11.8006 10.2245 11.8006 10.9316 11.3661 11.3662Z"
        fill="#000" />
</svg>
