<svg width="24" height="17" viewBox="0 0 24 17" fill="none" xmlns="http://www.w3.org/2000/svg">
    <path
        d="M16.5053 13.0773C16.5053 14.051 17.294 14.84 18.2675 14.84C18.6755 14.84 19.0462 14.696 19.345 14.4635C19.6437 14.696 20.0148 14.84 20.4225 14.84C21.3962 14.84 22.1852 14.051 22.1852 13.0773C22.1852 12.1038 21.3962 11.3143 20.4225 11.3143C20.0148 11.3143 19.644 11.4583 19.345 11.691C19.0465 11.4583 18.6755 11.3143 18.2675 11.3143C17.2943 11.3145 16.5053 12.104 16.5053 13.0773ZM10.7858 13.7432C10.7858 13.9595 10.961 14.1353 11.1775 14.1353H13.0577C13.274 14.1353 13.4495 13.9595 13.4495 13.7432C13.4495 13.527 13.274 13.3515 13.0577 13.3515H11.1775C10.961 13.3513 10.7858 13.5267 10.7858 13.7432ZM6.08475 13.7432C6.08475 13.9595 6.26025 14.1353 6.4765 14.1353H9.64925C9.86575 14.1353 10.0413 13.9595 10.0413 13.7432C10.0413 13.527 9.86575 13.3515 9.64925 13.3515H6.4765C6.26025 13.3513 6.08475 13.5267 6.08475 13.7432ZM2.01075 13.7432C2.01075 13.9595 2.18625 14.1353 2.40275 14.1353H4.9485C5.165 14.1353 5.34025 13.9595 5.34025 13.7432C5.34025 13.527 5.165 13.3515 4.9485 13.3515H2.40275C2.18625 13.3513 2.01075 13.5267 2.01075 13.7432ZM23.5053 2.2665V3.72125H0.4945V2.2665C0.4945 0.52375 2.19475 0.495 2.2665 0.49425H21.7335C23.476 0.49425 23.505 2.19475 23.5053 2.2665ZM0.4945 14.3885V6.6595H23.5053V14.3885C23.5053 16.1313 21.805 16.16 21.7323 16.1605H2.2665C0.524 16.1603 0.495 14.4602 0.4945 14.3885ZM24 14.3885V2.2665C24 1.48225 23.5262 0 21.7335 0H2.2665C1.4825 0 0 0.47375 0 2.2665V14.3883C0 15.1725 0.47375 16.655 2.2665 16.655H21.7335C22.517 16.655 24 16.1812 24 14.3885Z"
        fill="#000" />
</svg>
