<svg width="40" height="40" viewBox="0 0 40 40" fill="none" xmlns="http://www.w3.org/2000/svg">
<circle cx="19.7849" cy="19.7849" r="19.7849" fill="#F0F0F0"/>
<path d="M18.5299 13.2931C18.6343 13.3499 18.7512 13.38 18.8701 13.3808C18.9654 13.3814 19.0595 13.3597 19.1449 13.3174C19.1753 13.3021 19.1984 13.2753 19.2091 13.2429C19.2198 13.2105 19.2172 13.1753 19.2019 13.1448C19.1865 13.1144 19.1597 13.0913 19.1274 13.0806C19.095 13.0699 19.0597 13.0725 19.0293 13.0878C18.9701 13.1141 18.9056 13.1262 18.8409 13.1231C18.7763 13.12 18.7132 13.1017 18.6569 13.0698C18.6006 13.0379 18.5525 12.9933 18.5165 12.9394C18.4806 12.8856 18.4577 12.8241 18.4498 12.7598C18.442 12.6955 18.4492 12.6303 18.4711 12.5694C18.493 12.5085 18.5289 12.4535 18.5758 12.4089C18.6228 12.3644 18.6795 12.3314 18.7415 12.3128C18.8035 12.2941 18.869 12.2902 18.9328 12.3014C18.9511 12.3056 18.9702 12.3057 18.9885 12.3016C19.0069 12.2976 19.0242 12.2895 19.039 12.2779C19.0539 12.2665 19.0662 12.2519 19.0748 12.2352C19.0835 12.2185 19.0884 12.2001 19.0891 12.1813L19.1377 10.9678C19.139 10.9337 19.1268 10.9005 19.1037 10.8755C19.0806 10.8505 19.0485 10.8356 19.0145 10.8343C18.9975 10.8333 18.9806 10.8357 18.9646 10.8414C18.9486 10.8471 18.934 10.8559 18.9215 10.8674C18.909 10.8789 18.899 10.8928 18.892 10.9083C18.8851 10.9238 18.8813 10.9405 18.881 10.9575L18.8377 12.0367C18.6738 12.0454 18.5182 12.1113 18.3981 12.2231C18.3147 12.2911 18.2499 12.3792 18.2097 12.4791C18.1696 12.5789 18.1554 12.6874 18.1686 12.7942C18.1817 12.901 18.2217 13.0028 18.2848 13.09C18.3479 13.1772 18.4321 13.2469 18.5295 13.2927L18.5299 13.2931Z" fill="#2A347A"/>
<path d="M17.723 14.2333C17.6927 14.2176 17.6575 14.2146 17.625 14.2249C17.5925 14.2352 17.5655 14.258 17.5498 14.2883C17.5341 14.3185 17.5311 14.3538 17.5414 14.3863C17.5517 14.4187 17.5745 14.4458 17.6048 14.4615C18.0861 14.7039 18.62 14.823 19.1587 14.8083C19.6973 14.7935 20.2239 14.6453 20.6912 14.3769C20.7197 14.3592 20.7401 14.331 20.748 14.2985C20.756 14.2659 20.7509 14.2315 20.7339 14.2027C20.7168 14.1738 20.6892 14.1527 20.6568 14.1439C20.6245 14.1352 20.59 14.1394 20.5607 14.1557C20.1311 14.4025 19.6469 14.5387 19.1516 14.5523C18.6564 14.5658 18.1655 14.4562 17.723 14.2333Z" fill="#2A347A"/>
<path d="M17.9577 9.05582C17.974 9.06086 17.9911 9.06261 18.0081 9.06096C18.0251 9.05931 18.0416 9.0543 18.0566 9.04622C18.0716 9.03813 18.0849 9.02715 18.0956 9.01389C18.1063 9.00063 18.1143 8.98537 18.1191 8.969C18.1238 8.95263 18.1253 8.93547 18.1233 8.91853C18.1214 8.90158 18.1161 8.8852 18.1078 8.87032C18.0995 8.85544 18.0883 8.84237 18.0748 8.83187C18.0614 8.82136 18.046 8.81364 18.0295 8.80915C17.5875 8.68239 17.1228 8.6559 16.6692 8.73163C16.2156 8.80735 15.7847 8.98338 15.4078 9.24686C15.3938 9.25649 15.3818 9.26881 15.3726 9.2831C15.3634 9.29739 15.3571 9.31337 15.3541 9.33011C15.3511 9.34685 15.3514 9.36402 15.3551 9.38062C15.3588 9.39723 15.3657 9.41293 15.3756 9.42683C15.3854 9.44072 15.3978 9.45253 15.4122 9.46157C15.4266 9.47062 15.4427 9.47671 15.4595 9.47949C15.4763 9.48228 15.4934 9.48171 15.51 9.47781C15.5265 9.47391 15.5421 9.46677 15.5559 9.45679C15.9024 9.21801 16.2971 9.05832 16.7122 8.98903C17.1273 8.91974 17.5525 8.94254 17.9577 9.05582Z" fill="#2A347A"/>
<path d="M20.1839 9.01997C20.5904 8.8763 21.0284 8.84623 21.4508 8.93298C21.8731 9.01972 22.2638 9.22001 22.5808 9.51228C22.593 9.52417 22.6074 9.53352 22.6233 9.53977C22.6391 9.54603 22.656 9.54907 22.6731 9.54873C22.6901 9.54838 22.7069 9.54465 22.7225 9.53775C22.7381 9.53085 22.7521 9.52093 22.7638 9.50855C22.7755 9.49617 22.7846 9.48159 22.7907 9.46565C22.7967 9.44972 22.7995 9.43274 22.7989 9.41572C22.7983 9.3987 22.7943 9.38196 22.7871 9.36649C22.78 9.35102 22.7699 9.33712 22.7573 9.32561C22.4053 9.00091 21.9713 8.77841 21.5022 8.68206C21.0331 8.58571 20.5466 8.61916 20.0951 8.77882C20.0792 8.78465 20.0647 8.79354 20.0523 8.80499C20.0399 8.81643 20.0299 8.83021 20.0228 8.84553C20.0085 8.87646 20.0071 8.91181 20.0189 8.94378C20.0307 8.97576 20.0547 9.00175 20.0856 9.01604C20.1165 9.03033 20.1519 9.03174 20.1839 9.01997Z" fill="#2A347A"/>
<path d="M21.2372 10.4662C21.0095 10.4662 20.8247 10.7969 20.8247 11.2048C20.8247 11.6127 21.0095 11.9435 21.2372 11.9435C21.465 11.9435 21.6499 11.6128 21.6499 11.2048C21.6499 10.7967 21.4651 10.4662 21.2372 10.4662Z" fill="#2A347A"/>
<path d="M16.8779 10.4662C16.6501 10.4662 16.4653 10.7969 16.4653 11.2048C16.4653 11.6127 16.6501 11.9435 16.8779 11.9435C17.1056 11.9435 17.2905 11.6128 17.2905 11.2048C17.2905 10.7967 17.1058 10.4662 16.8779 10.4662Z" fill="#2A347A"/>
<path d="M35.1113 32.1143C34.0715 29.5654 32.4363 27.3027 30.3426 25.5154C28.249 23.7282 25.7576 22.4684 23.0772 21.8415C22.9971 21.8226 22.9258 21.7772 22.875 21.7125C22.8241 21.6479 22.7966 21.5679 22.7971 21.4856V16.3313C23.0892 15.9407 23.3321 15.5157 23.5204 15.0658C23.6052 14.8641 23.6784 14.6611 23.7453 14.4556C23.8788 14.48 24.0142 14.4925 24.1499 14.4928C24.4847 14.4953 24.8148 14.415 25.1109 14.259C25.3856 14.114 25.6173 13.8994 25.783 13.6368C25.9487 13.3741 26.0426 13.0726 26.0552 12.7623C26.06 12.4479 25.9687 12.1397 25.7935 11.8786C25.6183 11.6176 25.3676 11.4163 25.075 11.3015C24.8089 11.2107 24.5212 11.2044 24.2514 11.2835C24.2681 10.9932 24.2797 10.7003 24.29 10.4061L24.3003 10.0772C24.5145 9.38358 24.665 8.67188 24.7499 7.95093C24.8694 6.75998 24.6831 5.68337 24.2116 4.83673C23.6566 3.84234 22.6468 3.0548 21.3711 2.61799C20.1724 2.20816 18.9994 2.21073 18.068 2.6257C17.3468 2.94921 16.7809 3.54227 16.4916 4.27787C16.2343 4.19171 15.9699 4.12809 15.7015 4.08773C14.7444 3.94898 13.8464 4.20721 13.2991 4.77892C12.7286 5.37246 12.5051 6.30004 12.6323 7.53596C12.7702 8.84167 13.1677 10.1066 13.8014 11.2566C13.5328 11.249 13.269 11.3278 13.0485 11.4814C12.8148 11.6607 12.639 11.9048 12.5428 12.1832C12.4467 12.4616 12.4344 12.7622 12.5077 13.0475C12.5839 13.3254 12.7218 13.5825 12.9111 13.7998C13.1004 14.0171 13.3362 14.189 13.601 14.3027C13.9332 14.4487 14.2928 14.5223 14.6557 14.5185C14.729 14.5185 14.8035 14.5147 14.8767 14.5095C14.998 14.8308 15.1405 15.1437 15.3033 15.4461C15.4621 15.7382 15.6461 16.0159 15.8531 16.276V21.4021C15.8522 21.4837 15.8232 21.5624 15.771 21.6251C15.7188 21.6879 15.6467 21.7307 15.5666 21.7464C13.0441 22.2499 10.6549 23.2755 8.55246 24.7575C6.45005 26.2395 4.68101 28.145 3.35905 30.3516C3.34133 30.3807 3.33591 30.4157 3.34399 30.4488C3.35206 30.482 3.37296 30.5105 3.40209 30.5283C3.43122 30.546 3.4662 30.5514 3.49933 30.5433C3.53246 30.5352 3.56102 30.5143 3.57874 30.4852C5.78182 26.8068 9.21426 24.0255 13.2695 22.6329C13.9491 24.6692 16.3169 26.0811 19.0868 26.0811C21.8477 26.0811 24.2129 24.6756 24.9002 22.6483C27.14 23.4545 29.1853 24.7225 30.9035 26.37C32.6216 28.0176 33.9743 30.0079 34.8736 32.2119C34.8866 32.2434 34.9115 32.2685 34.943 32.2816C34.9744 32.2948 35.0098 32.2949 35.0413 32.2819C35.0728 32.269 35.0979 32.244 35.111 32.2126C35.1242 32.1811 35.1243 32.1458 35.1113 32.1143ZM24.8784 12.2432C24.6159 12.2628 24.3638 12.3544 24.1499 12.5079C24.1872 12.1944 24.2142 11.8784 24.2347 11.5598C24.4765 11.4665 24.7432 11.4606 24.9889 11.5431C25.2315 11.6388 25.439 11.8064 25.5836 12.0234C25.7283 12.2404 25.8032 12.4964 25.7983 12.7571C25.7849 13.0214 25.7034 13.2777 25.5619 13.5012C25.4203 13.7247 25.2233 13.9078 24.9902 14.0329C24.6303 14.2182 24.2194 14.2796 23.8211 14.2076C23.9427 13.7762 24.0354 13.3371 24.0986 12.8933C24.3042 12.6655 24.5892 12.5249 24.8951 12.5002C24.9292 12.498 24.961 12.4823 24.9835 12.4566C25.006 12.431 25.0174 12.3974 25.0152 12.3634C25.013 12.3293 24.9973 12.2975 24.9717 12.275C24.946 12.2524 24.9125 12.241 24.8784 12.2432ZM24.0729 10.0296H24.0613L24.0574 10.0258L24.0729 10.0296ZM13.7063 14.0688C13.4771 13.9709 13.2727 13.8228 13.1084 13.6353C12.9441 13.4479 12.824 13.2259 12.7569 12.9858C12.696 12.7503 12.7053 12.5021 12.7836 12.2718C12.8619 12.0415 13.0058 11.8391 13.1976 11.6895C13.42 11.539 13.6925 11.4814 13.9568 11.5289C14.0506 11.6857 14.1483 11.8411 14.2511 11.9927C14.2883 12.2304 14.3281 12.4655 14.3744 12.6993C14.155 12.4143 13.8473 12.2101 13.4995 12.1186C13.4664 12.1103 13.4314 12.1154 13.4021 12.1329C13.3729 12.1503 13.3517 12.1787 13.3434 12.2118C13.335 12.2448 13.3402 12.2798 13.3576 12.3091C13.3751 12.3384 13.4035 12.3595 13.4365 12.3679C13.6464 12.4223 13.8402 12.526 14.002 12.6703C14.1638 12.8146 14.2888 12.9955 14.3667 13.1978C14.376 13.2223 14.3926 13.2433 14.4141 13.2582C14.4357 13.2731 14.4612 13.2812 14.4874 13.2813C14.4922 13.2811 14.497 13.2802 14.5016 13.2787C14.5812 13.6115 14.675 13.9391 14.7855 14.2577C14.4159 14.2807 14.0461 14.216 13.7063 14.0688ZM15.5294 15.3228C14.756 13.8954 14.5131 12.2355 14.3153 10.5178C14.5175 9.12528 15.2243 7.85557 16.3015 6.95012C16.5242 7.17777 16.7976 7.34947 17.0993 7.45117C17.6081 7.62075 18.1477 7.62718 18.6693 7.63232C18.8697 7.63489 19.0778 7.63745 19.2782 7.64902C20.2311 7.71956 21.155 8.00767 21.9791 8.4912C22.8032 8.97473 23.5054 9.64079 24.0318 10.4382C23.9752 12.0235 23.8724 13.5627 23.284 14.9656C22.5723 16.6614 21.1527 17.8318 19.6675 17.9475C17.8676 18.0875 16.2925 16.7308 15.5294 15.3228ZM19.0868 25.8242C16.4698 25.8242 14.1521 24.4547 13.5123 22.552C14.2021 22.3256 14.9049 22.1407 15.6167 21.9982C15.7551 21.971 15.8798 21.8968 15.9697 21.7882C16.0596 21.6795 16.1092 21.5431 16.1101 21.4021V19.8228C17.5968 19.5837 19.0068 18.9998 20.2273 18.1178C21.1316 17.8786 21.9396 17.3648 22.5398 16.6473V21.4856C22.5386 21.6258 22.5854 21.7622 22.6723 21.8723C22.7592 21.9823 22.8811 22.0594 23.0177 22.0907C23.5753 22.2218 24.1217 22.3794 24.657 22.5635C24.0125 24.4598 21.6961 25.8242 19.0868 25.8242Z" fill="#2A347A"/>
</svg>
