<svg width="16" height="18" viewBox="0 0 16 18" fill="none" xmlns="http://www.w3.org/2000/svg">
<path d="M3.24892 2.92301C4.54904 1.62285 6.27769 0.906834 8.11636 0.906834C9.95503 0.906834 11.6837 1.62285 12.9838 2.92301C14.284 4.22319 15 5.95181 15 7.79045C15 11.51 11.4831 14.6037 9.59363 16.2658C9.33106 16.4968 9.10432 16.6962 8.92367 16.865C8.69734 17.0764 8.40683 17.1821 8.11639 17.1821C7.82588 17.1821 7.53544 17.0764 7.30908 16.865C7.12843 16.6962 6.90168 16.4968 6.63912 16.2658C4.74968 14.6037 1.23275 11.51 1.23275 7.79045C1.23278 5.95181 1.94877 4.22319 3.24892 2.92301ZM7.26883 15.55C7.53715 15.786 7.76885 15.9899 7.9599 16.1683C8.04766 16.2502 8.18511 16.2503 8.27291 16.1683C8.46393 15.9898 8.69566 15.786 8.96398 15.55C10.7403 13.9874 14.0467 11.0789 14.0467 7.79048C14.0467 4.52053 11.3864 1.86024 8.11642 1.86024C4.84648 1.86024 2.18619 4.52053 2.18619 7.79048C2.18616 11.0789 5.49253 13.9874 7.26883 15.55Z" fill="#2A347A" stroke="#2A347A" stroke-width="0.6"/>
<path d="M8.11661 4.49689C9.78931 4.49689 11.1501 5.85769 11.1501 7.5304C11.1501 9.2031 9.78931 10.5639 8.11661 10.5639C6.4439 10.5639 5.0831 9.2031 5.0831 7.5304C5.0831 5.85769 6.4439 4.49689 8.11661 4.49689ZM8.11661 9.61049C9.26361 9.61049 10.1968 8.67733 10.1968 7.53037C10.1968 6.3834 9.26361 5.45024 8.11661 5.45024C6.96961 5.45024 6.03648 6.3834 6.03648 7.53037C6.03648 8.67733 6.96961 9.61049 8.11661 9.61049Z" fill="#2A347A" stroke="#2A347A" stroke-width="0.6"/>
</svg>
