<svg width="18" height="18" viewBox="0 0 18 18" fill="none" xmlns="http://www.w3.org/2000/svg">
<path d="M13.6451 10.9114C13.3176 10.5704 12.9225 10.388 12.5037 10.388C12.0884 10.388 11.6899 10.567 11.3488 10.908L10.2817 11.9718C10.1939 11.9245 10.1061 11.8806 10.0217 11.8367C9.90013 11.7759 9.78532 11.7185 9.68739 11.6577C8.68782 11.0229 7.77943 10.1955 6.90819 9.12504C6.48608 8.59149 6.20242 8.14236 5.99643 7.68648C6.27333 7.43321 6.52998 7.16981 6.77987 6.91654C6.87442 6.82199 6.96898 6.72406 7.06353 6.6295C7.77268 5.92035 7.77268 5.00183 7.06353 4.29268L6.14163 3.37079C6.03695 3.2661 5.92889 3.15804 5.82758 3.04998C5.62497 2.84061 5.41222 2.62449 5.19272 2.42188C4.86516 2.09769 4.47344 1.92547 4.06146 1.92547C3.64947 1.92547 3.251 2.09769 2.91331 2.42188L2.90655 2.42863L1.7584 3.58691C1.32616 4.01915 1.07964 4.54595 1.02561 5.15717C0.944568 6.14323 1.23498 7.06175 1.45786 7.66284C2.00492 9.13855 2.82213 10.5062 4.04119 11.9718C5.52028 13.7379 7.29991 15.1326 9.33281 16.1152C10.1095 16.4833 11.1462 16.9189 12.3045 16.9932C12.3754 16.9966 12.4497 17 12.5172 17C13.2973 17 13.9524 16.7197 14.4657 16.1625C14.4691 16.1558 14.4758 16.1524 14.4792 16.1456C14.6548 15.9329 14.8574 15.7404 15.0702 15.5344C15.2154 15.396 15.364 15.2508 15.5092 15.0988C15.8435 14.751 16.0191 14.3457 16.0191 13.9304C16.0191 13.5116 15.8401 13.1098 15.499 12.7721L13.6451 10.9114ZM14.8541 14.4673C14.8507 14.4673 14.8507 14.4707 14.8541 14.4673C14.7224 14.6091 14.5873 14.7375 14.4421 14.8793C14.2226 15.0887 13.9997 15.3082 13.7903 15.5547C13.4493 15.9194 13.0474 16.0916 12.5206 16.0916C12.47 16.0916 12.4159 16.0916 12.3653 16.0882C11.3623 16.0241 10.4303 15.6323 9.73129 15.298C7.81996 14.3728 6.14163 13.0591 4.74697 11.3943C3.59544 10.0064 2.82551 8.72319 2.31559 7.34541C2.00154 6.50456 1.88673 5.84944 1.93738 5.23146C1.97115 4.83637 2.12311 4.50881 2.40339 4.22852L3.55492 3.077C3.72039 2.92166 3.89599 2.83724 4.06821 2.83724C4.28096 2.83724 4.45318 2.96556 4.56124 3.07362L4.57137 3.08375C4.77736 3.27623 4.97322 3.47547 5.17921 3.68822C5.2839 3.79628 5.39196 3.90434 5.50002 4.01578L6.42192 4.93767C6.77987 5.29563 6.77987 5.62656 6.42192 5.98452C6.32399 6.08245 6.22943 6.18038 6.1315 6.27493C5.84784 6.56534 5.57769 6.8355 5.2839 7.0989C5.27714 7.10565 5.27039 7.10903 5.26701 7.11578C4.9766 7.40619 5.03063 7.68985 5.09141 7.88234L5.10154 7.91273C5.3413 8.49356 5.679 9.04062 6.19229 9.69236L6.19566 9.69574C7.12769 10.8439 8.11037 11.7388 9.19436 12.4243C9.33281 12.5121 9.47464 12.583 9.60972 12.6505C9.73129 12.7113 9.8461 12.7687 9.94403 12.8295C9.95754 12.8363 9.97105 12.8464 9.98456 12.8532C10.0994 12.9106 10.2074 12.9376 10.3189 12.9376C10.5992 12.9376 10.7748 12.762 10.8322 12.7046L11.9871 11.5497C12.1019 11.4348 12.2842 11.2964 12.497 11.2964C12.7063 11.2964 12.8786 11.4281 12.9833 11.5429L12.99 11.5497L14.8507 13.4103C15.1985 13.7548 15.1985 14.1094 14.8541 14.4673ZM9.64686 4.80597C10.5316 4.95456 11.3353 5.37329 11.9769 6.01491C12.6185 6.65652 13.0339 7.46022 13.1859 8.34497C13.223 8.56785 13.4155 8.72319 13.635 8.72319C13.662 8.72319 13.6856 8.71981 13.7127 8.71643C13.9626 8.67591 14.128 8.43953 14.0875 8.18964C13.9051 7.11916 13.3986 6.14323 12.6253 5.36992C11.852 4.59661 10.8761 4.09007 9.80558 3.90772C9.55569 3.86719 9.32268 4.03266 9.27878 4.27918C9.23488 4.52569 9.39697 4.76545 9.64686 4.80597ZM16.9815 8.05794C16.681 6.29519 15.8502 4.69116 14.5738 3.41469C13.2973 2.13821 11.6933 1.3075 9.93052 1.00695C9.68401 0.96305 9.451 1.1319 9.4071 1.37841C9.36658 1.6283 9.53205 1.86131 9.78194 1.90521C11.3556 2.17198 12.7908 2.91828 13.9322 4.0563C15.0736 5.1977 15.8165 6.63288 16.0833 8.20652C16.1204 8.4294 16.3129 8.58474 16.5324 8.58474C16.5594 8.58474 16.583 8.58136 16.6101 8.57798C16.8566 8.54084 17.0254 8.30445 16.9815 8.05794Z" fill="#2A347A"/>
<path d="M14.8541 14.4673C14.8507 14.4673 14.8507 14.4707 14.8541 14.4673ZM14.8541 14.4673C14.7224 14.6091 14.5873 14.7375 14.4421 14.8793C14.2226 15.0887 13.9997 15.3082 13.7903 15.5547C13.4493 15.9194 13.0474 16.0916 12.5206 16.0916C12.47 16.0916 12.4159 16.0916 12.3653 16.0882C11.3623 16.0241 10.4303 15.6323 9.73129 15.298C7.81996 14.3728 6.14163 13.0591 4.74697 11.3943C3.59544 10.0064 2.82551 8.72319 2.31559 7.34541C2.00154 6.50456 1.88673 5.84944 1.93738 5.23146C1.97115 4.83637 2.12311 4.50881 2.40339 4.22852L3.55492 3.077C3.72039 2.92166 3.89599 2.83724 4.06821 2.83724C4.28096 2.83724 4.45318 2.96556 4.56124 3.07362L4.57137 3.08375C4.77736 3.27623 4.97322 3.47547 5.17921 3.68822C5.2839 3.79628 5.39196 3.90434 5.50002 4.01578L6.42192 4.93767C6.77987 5.29563 6.77987 5.62656 6.42192 5.98452C6.32399 6.08245 6.22943 6.18038 6.1315 6.27493C5.84784 6.56534 5.57769 6.8355 5.2839 7.0989C5.27714 7.10565 5.27039 7.10903 5.26701 7.11578C4.9766 7.40619 5.03063 7.68985 5.09141 7.88234L5.10154 7.91273C5.3413 8.49356 5.679 9.04062 6.19229 9.69236L6.19566 9.69574C7.12769 10.8439 8.11037 11.7388 9.19436 12.4243C9.33281 12.5121 9.47464 12.583 9.60972 12.6505C9.73129 12.7113 9.8461 12.7687 9.94403 12.8295C9.95754 12.8363 9.97105 12.8464 9.98456 12.8531C10.0994 12.9106 10.2074 12.9376 10.3189 12.9376C10.5992 12.9376 10.7748 12.762 10.8322 12.7046L11.9871 11.5497C12.1019 11.4348 12.2842 11.2964 12.497 11.2964C12.7063 11.2964 12.8786 11.4281 12.9833 11.5429L12.99 11.5497L14.8507 13.4103C15.1985 13.7548 15.1985 14.1094 14.8541 14.4673ZM13.6451 10.9114C13.3176 10.5704 12.9225 10.388 12.5037 10.388C12.0884 10.388 11.6899 10.567 11.3488 10.908L10.2817 11.9718C10.1939 11.9245 10.1061 11.8806 10.0217 11.8367C9.90013 11.7759 9.78532 11.7185 9.68739 11.6577C8.68782 11.0229 7.77943 10.1955 6.90819 9.12504C6.48608 8.59149 6.20242 8.14236 5.99643 7.68648C6.27333 7.43321 6.52998 7.16981 6.77987 6.91654C6.87442 6.82199 6.96898 6.72406 7.06353 6.6295C7.77268 5.92035 7.77268 5.00183 7.06353 4.29268L6.14163 3.37079C6.03695 3.2661 5.92889 3.15804 5.82758 3.04998C5.62497 2.84061 5.41222 2.62449 5.19272 2.42188C4.86516 2.09769 4.47344 1.92547 4.06146 1.92547C3.64947 1.92547 3.251 2.09769 2.91331 2.42188L2.90655 2.42863L1.7584 3.58691C1.32616 4.01915 1.07964 4.54595 1.02561 5.15717C0.944568 6.14323 1.23498 7.06175 1.45786 7.66284C2.00492 9.13855 2.82213 10.5062 4.04119 11.9718C5.52028 13.7379 7.29991 15.1326 9.33281 16.1152C10.1095 16.4833 11.1462 16.9189 12.3045 16.9932C12.3754 16.9966 12.4497 17 12.5172 17C13.2973 17 13.9524 16.7197 14.4657 16.1625C14.4691 16.1558 14.4758 16.1524 14.4792 16.1456C14.6548 15.9329 14.8574 15.7404 15.0702 15.5344C15.2154 15.396 15.364 15.2508 15.5092 15.0988C15.8435 14.751 16.0191 14.3457 16.0191 13.9304C16.0191 13.5116 15.8401 13.1098 15.499 12.7721L13.6451 10.9114ZM9.64686 4.80597C10.5316 4.95456 11.3353 5.37329 11.9769 6.01491C12.6185 6.65652 13.0339 7.46022 13.1859 8.34497C13.223 8.56785 13.4155 8.72319 13.635 8.72319C13.662 8.72319 13.6856 8.71981 13.7127 8.71644C13.9626 8.67591 14.128 8.43953 14.0875 8.18964C13.9051 7.11916 13.3986 6.14323 12.6253 5.36992C11.852 4.59661 10.8761 4.09007 9.80558 3.90772C9.55569 3.86719 9.32268 4.03266 9.27878 4.27918C9.23488 4.52569 9.39697 4.76545 9.64686 4.80597ZM16.9815 8.05794C16.681 6.29519 15.8502 4.69116 14.5738 3.41469C13.2973 2.13821 11.6933 1.3075 9.93053 1.00695C9.68401 0.96305 9.451 1.1319 9.4071 1.37841C9.36658 1.6283 9.53205 1.86131 9.78194 1.90521C11.3556 2.17198 12.7908 2.91828 13.9322 4.0563C15.0736 5.1977 15.8165 6.63288 16.0833 8.20652C16.1204 8.4294 16.3129 8.58474 16.5324 8.58474C16.5594 8.58474 16.583 8.58136 16.6101 8.57798C16.8566 8.54084 17.0254 8.30445 16.9815 8.05794Z" stroke="#2A347A"/>
</svg>
