<svg width="26" height="27" viewBox="0 0 26 27" fill="none" xmlns="http://www.w3.org/2000/svg">
<rect width="26" height="27" fill="#F5F5F5"/>
<g id="account" clip-path="url(#clip0_1_50)">
<rect width="412" height="852" transform="translate(-246 -820)" fill="white"/>
<g id="Frame 45">
<g id="Frame 40">
<g id="social">
<g id="insta">
<path id="Vector" d="M12.7055 16.0175C13.3799 16.0166 14.0265 15.7349 14.5035 15.2341C14.9805 14.7332 15.249 14.0542 15.2501 13.3457C15.2494 12.7864 15.0811 12.2416 14.769 11.7884C14.5342 11.4441 14.2247 11.1634 13.8661 10.9697C13.5076 10.7759 13.1102 10.6745 12.707 10.674C11.8579 10.674 11.1071 11.1148 10.6439 11.7879C10.3316 12.2409 10.1633 12.7859 10.1628 13.3452C10.1631 14.0536 10.431 14.7329 10.9078 15.2339C11.3845 15.7349 12.0311 16.0168 12.7055 16.0175ZM18.26 10.0773V7.50449L17.9411 7.50556L15.81 7.51255L15.8182 10.0859L18.26 10.0773Z" fill="#A6A6A6"/>
<path id="Vector_2" d="M12.7059 0C5.69989 0 0 5.98693 0 13.3457C0 20.704 5.69989 26.6915 12.7059 26.6915C19.7114 26.6915 25.4118 20.704 25.4118 13.3457C25.4118 5.98693 19.7124 0 12.7059 0ZM19.9319 11.7884V18.0027C19.9313 18.7806 19.6368 19.5264 19.1132 20.0764C18.5896 20.6265 17.8796 20.9359 17.1391 20.9368H8.27269C7.53209 20.9361 6.82203 20.6267 6.2984 20.0766C5.77476 19.5265 5.48036 18.7806 5.47981 18.0027V8.68984C5.48049 7.91204 5.77496 7.1663 6.29858 6.61631C6.8222 6.06632 7.53218 5.75703 8.27269 5.75631H17.1386C17.8791 5.75703 18.5892 6.0663 19.1129 6.61628C19.6366 7.16625 19.9311 7.91199 19.9319 8.68984V11.7884Z" fill="#A6A6A6"/>
<path id="Vector_3" d="M16.6587 13.3457C16.6587 15.6342 14.8858 17.4974 12.7061 17.4974C10.5263 17.4974 8.75398 15.6342 8.75398 13.3457C8.75395 12.8117 8.85268 12.2828 9.04468 11.7884H6.88745V18.0027C6.88772 18.3883 7.03375 18.7581 7.29345 19.0306C7.55314 19.3032 7.90525 19.4563 8.27238 19.4563H17.1382C17.5053 19.4562 17.8574 19.303 18.117 19.0305C18.3767 18.7579 18.5228 18.3883 18.5232 18.0027V11.7884H16.3649C16.5527 12.269 16.6587 12.7953 16.6587 13.3457Z" fill="#A6A6A6"/>
</g>
</g>
</g>
</g>
</g>
<defs>
<clipPath id="clip0_1_50">
<rect width="412" height="852" fill="white" transform="translate(-246 -820)"/>
</clipPath>
</defs>
</svg>
