<svg width="16" height="18" viewBox="0 0 16 18" fill="none" xmlns="http://www.w3.org/2000/svg">
    <path
        d="M8.33936 8.82865C9.11354 8.82865 9.87033 8.59908 10.514 8.16897C11.1577 7.73885 11.6595 7.12752 11.9557 6.41227C12.252 5.69702 12.3295 4.90998 12.1785 4.15068C12.0274 3.39137 11.6546 2.69391 11.1072 2.14648C10.5598 1.59905 9.86231 1.22625 9.103 1.07521C8.3437 0.924179 7.55666 1.0017 6.84141 1.29796C6.12616 1.59423 5.51483 2.09594 5.08471 2.73964C4.6546 3.38335 4.42503 4.14015 4.42503 4.91432C4.42618 5.95211 4.83895 6.94707 5.57278 7.6809C6.30661 8.41473 7.30157 8.8275 8.33936 8.82865ZM8.33936 2.08731C8.89849 2.08731 9.44506 2.25311 9.90996 2.56375C10.3749 2.87439 10.7372 3.31591 10.9512 3.83247C11.1651 4.34904 11.2211 4.91746 11.112 5.46585C11.003 6.01423 10.7337 6.51796 10.3384 6.91332C9.94299 7.30869 9.43926 7.57793 8.89088 7.68702C8.34249 7.7961 7.77407 7.74011 7.25751 7.52614C6.74094 7.31217 6.29942 6.94983 5.98878 6.48493C5.67815 6.02003 5.51234 5.47345 5.51234 4.91432C5.51321 4.16482 5.81133 3.44626 6.34131 2.91628C6.87129 2.3863 7.58985 2.08818 8.33936 2.08731ZM1.54366 16.7758C1.68784 16.7758 1.82612 16.7185 1.92808 16.6166C2.03003 16.5146 2.08731 16.3763 2.08731 16.2322V14.8882C2.08846 13.8559 2.49906 12.8662 3.22901 12.1363C3.95897 11.4063 4.94866 10.9957 5.98098 10.9946H10.6977C11.73 10.9957 12.7197 11.4063 13.4497 12.1363C14.1797 12.8662 14.5902 13.8559 14.5914 14.8882V16.2322C14.5914 16.3763 14.6487 16.5146 14.7506 16.6166C14.8526 16.7185 14.9909 16.7758 15.1351 16.7758C15.2792 16.7758 15.4175 16.7185 15.5195 16.6166C15.6214 16.5146 15.6787 16.3763 15.6787 16.2322V14.8882C15.6771 13.5677 15.1518 12.3017 14.2181 11.3679C13.2843 10.4341 12.0183 9.90884 10.6977 9.90726H5.98152C4.66087 9.9087 3.39472 10.4339 2.46083 11.3677C1.52695 12.3015 1.00158 13.5676 1 14.8882V16.2322C1 16.3763 1.05728 16.5146 1.15923 16.6166C1.26119 16.7185 1.39947 16.7758 1.54366 16.7758Z"
        fill="#000" stroke="#000" stroke-width="0.5" />
</svg>
