<svg width="26" height="26" viewBox="0 0 26 26" fill="none" xmlns="http://www.w3.org/2000/svg">
<path d="M12.7059 25.4118C19.7231 25.4118 25.4118 19.7231 25.4118 12.7059C25.4118 5.68862 19.7231 0 12.7059 0C5.68862 0 0 5.68862 0 12.7059C0 19.7231 5.68862 25.4118 12.7059 25.4118Z" fill="#A6A6A6"/>
<path d="M20.9363 7.6018C20.3172 7.87217 19.6623 8.05179 18.9919 8.13511C19.6986 7.71604 20.2269 7.05212 20.4765 6.26935C19.8151 6.66195 19.0913 6.93845 18.3366 7.08687C17.8741 6.59226 17.2735 6.24827 16.6128 6.09964C15.9522 5.95101 15.2621 6.00462 14.6323 6.25349C14.0026 6.50236 13.4623 6.93498 13.0817 7.49508C12.7012 8.05518 12.498 8.71684 12.4986 9.39399C12.4962 9.65246 12.5225 9.91039 12.5771 10.163C11.2346 10.0971 9.92109 9.74867 8.72239 9.14054C7.52369 8.5324 6.46677 7.67823 5.62065 6.63381C5.18574 7.37678 5.05101 8.2578 5.24398 9.0968C5.43695 9.9358 5.94305 10.6694 6.65886 11.1477C6.12458 11.1333 5.60162 10.9906 5.13415 10.7315V10.7682C5.13566 11.547 5.40522 12.3015 5.89753 12.905C6.38984 13.5084 7.07488 13.924 7.8375 14.0818C7.54889 14.1576 7.25149 14.1947 6.9531 14.1921C6.73825 14.1961 6.52359 14.177 6.31279 14.1353C6.53128 14.8051 6.95191 15.3907 7.51684 15.8116C8.08178 16.2325 8.76325 16.4681 9.46753 16.4859C8.27405 17.4187 6.80276 17.9255 5.28796 17.9253C5.01806 17.9276 4.7483 17.912 4.48047 17.8785C6.02502 18.8744 7.82539 19.4005 9.66313 19.3932C15.874 19.3932 19.2694 14.249 19.2694 9.79022C19.2694 9.64142 19.2694 9.49765 19.2577 9.35387C19.919 8.87663 20.4878 8.28291 20.9363 7.6018Z" fill="white"/>
</svg>
