<?xml version="1.0" encoding="UTF-8"?>
<svg version="1.1" viewBox="0 0 2048 2048" width="1280" height="1280" xmlns="http://www.w3.org/2000/svg">
<path transform="translate(214,44)" d="m0 0h7l10 3 14 9 10 7 22 15 18 12 17 11 38 24 51 30 27 15 28 15 19 10 38 19 28 13 42 19 39 16 35 14 26 9 37 13 57 18 59 16 51 12 39 8 50 9 57 8 46 5 53 4 40 2 52 1h335l36 2 24 3 25 5 28 8 28 11 25 12 23 14 13 9 21 16 14 13 8 7 8 8 7 8 9 10 14 19 10 15 9 15 12 23 7 16 9 25 7 25 5 25 3 25 1 17v20l-2 31-3 20-8 36-12 34-8 18-13 25-8 13-12 17-10 13-7 9-10 10-5 6h-2l-2 4-10 10-11 9-26 20-25 15-13 7h-2v2l6 2 34 16 11 6 33 22 11 9 13 12 16 14 9 11 13 15 8 10 14 17 9 10 13 11 15 10 15 8 21 8 16 4 12 2 23 2 10 3 9 6 6 9 3 10-1 10-4 9-7 8-10 5-5 1h-21l-23-3-22-5-23-8-25-12-16-10-12-9-11-9-17-17-8-9-11-14-9-11-13-16-9-9-8-7-9-8-16-12-17-11-18-10-22-10-33-11-26-5-14-2-15-1h-252l-12 3-11 7-8 9-4 8-3 13v242l3 14 5 13 9 13 3 3v2l4 2 10 8 14 7 12 3 8 1h12l15-3 12-5 12-7 11-10 7-10 6-12 3-10 1-7 1-21v-156l2-12 5-10 8-7 10-4h13l10 4 6 5 5 7 3 10 1 153 1 31 3 23 6 21 5 13 7 14 9 15 13 16 10 11 11 9 15 11 25 13 24 8 15 3 33 4 11 4 10 9 4 8 1 4v11l-4 10-8 9-10 5-5 1h-16l-27-3-26-6-25-9-25-12-10-6 16 55 23 80 7 27 3 16v35l-5 22-5 13-8 16-7 11-6 8-2 3h-2v2h-2v2l-8 7-9 8-11 7-10 6-23 9-34 10-6 2-3 21-4 14-8 19-4 7 61-1 42-2 43-5 23-4 35-8 39-12 17-6 37-15 48-24 40-25 19-14 20-15 10-5 4-1h114l12 5 8 8 3 6 2 1v21h-2l-2 6-5 6-9 6-7 2-11 1h-84l-7 3-18 13-17 12-16 10-20 12-21 12-17 8-16 8-23 10-34 13-39 12-28 7-40 8-39 5-23 2-21 1-210 1h-139l-40-1-21-3-21-7-20-11-16-13-9-9-10-13-10-18-5-12-5-17-2-15v-23l3-17 5-16 5-12 6-10v-2l-23-8-19-10-12-9-9-8v-2l-3-1-7-8-11-16-8-16-6-18-3-17-1-16 3-24 5-17 5-12 8-15 10-13 1-2-5-2-11-8-12-11-10-11-10-15-9-19-5-16-3-18v-21l3-19 5-16 7-16 10-16 8-10h2l2-4 13-12 12-8v-3l-12-17-10-21-6-21-2-16v-14l3-22 6-19 8-16 9-14 11-13 12-11 13-9 17-9 22-7 26-3h11l-16-43-13-36v-2l-101 14-42 8-42 9-36 8-97 27-31 11-29 10-48 17-28 12-75 32-96 48-18 10-27 16-16 9-41 24-11 7-81 54-16 10-10 3-11-1-10-4-8-8-4-8-2-15v-338l-18-11-21-13-18-14-17-14-7-6-7-8-10-10v-2h-2l-9-11-10-13-12-17-7-11-15-28-7-15-12-33-6-24-5-26-3-19v-63l1-1 3-22 6-29 6-21 11-30 8-16 14-27 12-17 13-18 9-11 16-17 15-15 14-11 15-12 19-12 24-14v-341l2-13 5-9 9-8 7-3zm34 90v1180l5-2 37-24 2-2-1-1125-23-15-18-12zm105 65v1050l16-8 24-13 27-15 45-24 58-27 26-12 23-10 49-19 38-15 35-12 42-13 31-10 30-8 85-21 72-13 41-7 81-9 32-3 42-2 63-2 97-1 1-1v-560l-1-1-106-1-80-3-31-2-83-9-28-4-85-15-27-6-62-15-41-11-32-10-31-10-40-13-89-35-19-8-28-13-34-16-33-15-25-13-23-13-32-17-23-13zm1020 244-1 18v544h204l29-3 25-5 24-7 25-10 22-11 19-12 19-14 13-12 8-7 10-10 7-8 9-11 12-17 14-24 12-26 9-27 6-25 3-21 1-13v-36l-3-27-5-24-8-26-8-20-12-24-14-22-9-12-11-13-14-15-13-12-15-12-16-11-22-13-26-12-30-10-26-6-24-3-17-1zm-1187 47-12 9-14 11-10 9-18 18-8 10-11 14-12 19-8 14-13 28-10 31-6 28-3 34v19l3 32 6 30 11 33 14 30 13 21 10 14 11 13 9 11 15 14 7 7 16 12 9 7 2-1v-467zm1011 577-58 2-10 1 11 30 18 49 3 7 5 1h89l3-2 1-43 3-22 8-23zm-116 151-16 3-16 8-10 8-9 11-7 14-4 16v15l4 16 7 14 9 11 12 9 13 6 12 3 10 1h171l1-1v-134zm-26 196-18 2-15 6-10 7-6 5-8 10-7 14-3 10-1 7v15l4 16 8 15 11 12 10 7 10 5 11 3 9 1h311l14-3 12-5 10-7 9-8 7-10 5-11 3-11 1-14-16 1-13 1-21-2-17-4-16-6-17-9-12-9-10-9-9-9-10-14-3-5-3-1zm430 33-4 5v11l1 9v23l-3 18-6 18-7 14-10 16-7 7-7 8-3 3 1 4 15 15 9 14 7 12 8 23 3 19 1 14-2 20-5 19-6 15-9 16-7 9-9 10-4 4v2l7 6 5 5 9 10 13 21 1 2 9-1 25-7 15-6 14-9 7-6 9-11 8-16 4-17v-18l-4-19-18-62-19-66-21-73-15-52-3-8zm-406 164-11 2-12 5-14 10-9 10-6 11-4 10-3 16v8l3 15 5 12 6 9 9 10 10 7 10 5 10 3 6 1h286l17-5 15-9 11-11 8-13 4-11 2-12v-10l-2-13-4-11-6-11-11-12-10-7-10-5-9-3-6-1zm87 196-14 2-13 5-13 9-9 9-8 14-5 13-1 5v22l5 16 6 11 11 12 11 8 13 6 8 2 12 1h194l11-1 17-6 11-7 7-6 8-10 7-14 3-11 1-16-2-13-4-12-8-13-8-9-13-9-15-6-12-2z"/>
<path transform="translate(1559,485)" d="m0 0h13l23 2 25 5 18 5 20 8 21 10 22 14 16 13 10 9 5 4 7 8 9 10 12 16 12 20 8 15 10 26 6 22 4 23 2 27-2 12-5 9-9 8-8 3-4 1h-8l-11-4-8-7-5-8-3-15-3-28-4-16-8-24-15-28-11-13-8-10-8-8-10-8-12-9-24-13-12-5-26-8-37-4-12-3-8-6-6-8-3-8v-11l4-11 8-9 11-5z"/>
<path transform="translate(1,768)" d="m0 0"/>
</svg>
