<?xml version="1.0" encoding="iso-8859-1"?>
<!-- Uploaded to: SVG Repo, www.svgrepo.com, Generator: SVG Repo Mixer Tools -->
<!DOCTYPE svg PUBLIC "-//W3C//DTD SVG 1.1//EN" "http://www.w3.org/Graphics/SVG/1.1/DTD/svg11.dtd">
<svg fill="#000" version="1.1" id="Capa_1" xmlns="http://www.w3.org/2000/svg" xmlns:xlink="http://www.w3.org/1999/xlink"
	 width="13" height="13" viewBox="0 0 606.231 606.23"
	 xml:space="preserve">
<g>
	<path d="M226.241,164.061c-12.24-22.95-3.366-51.408,19.89-63.648c23.256-12.24,51.714-3.978,63.954,18.972
		c12.24,22.95,3.366,51.408-19.889,63.648C266.939,195.272,238.481,187.01,226.241,164.061z M466.145,567.98l-41.616-77.724
		c-2.754-5.202-3.366-11.322-1.225-16.83l30.601-87.21c2.142-6.427,2.754-12.24-0.612-18.666L359.35,191.294l25.398-71.91
		c8.262-22.95,1.836-48.654-15.912-65.484L316.205,4.634c-6.732-6.426-17.442-6.12-23.868,0.612s-6.12,17.442,0.612,23.868
		l50.49,47.43c9.18,8.568,12.239,21.726,7.956,33.354l-20.809,59.058l-77.723,41.922l-59.67-23.868
		c-11.628-4.59-19.278-15.606-19.89-28.152l-2.448-69.156c-0.306-9.486-8.262-16.524-17.442-16.218
		c-9.486,0.306-16.524,8.262-16.218,17.442l2.754,71.91c0.918,24.48,16.218,45.9,38.862,55.08l82.926,33.048h0.306l71.91,134.64
		l-64.872,36.414c-14.688,7.956-25.092,22.032-28.764,38.25l-26.316,114.75c-3.06,13.77,5.508,27.233,18.972,30.6
		c1.836,0.307,3.978,0.612,5.814,0.612c11.628,0,22.032-7.956,24.786-19.584l25.092-109.242c1.224-5.813,5.202-10.71,10.404-13.77
		l91.494-50.49l-17.137,48.96c-5.508,15.605-4.284,32.742,3.672,47.124l44.37,82.926c4.59,8.568,13.464,13.464,22.338,13.464
		c3.979,0,8.263-0.918,11.935-3.06C467.981,595.521,472.571,580.221,466.145,567.98z"/>
</g>
</svg>