<svg width="16" height="16" viewBox="0 0 24 24" fill="none" xmlns="http://www.w3.org/2000/svg">
    <path
        d="M7.21037 24C6.55791 24 5.99935 23.7686 5.5347 23.3058C5.07005 22.843 4.83773 22.2867 4.83773 21.6368C4.83773 20.987 5.07005 20.4306 5.5347 19.9678C5.99935 19.5051 6.55791 19.2737 7.21037 19.2737C7.86286 19.2737 8.42142 19.5051 8.88605 19.9678C9.3507 20.4306 9.58302 20.987 9.58302 21.6368C9.58302 22.2867 9.3507 22.843 8.88605 23.3058C8.42142 23.7686 7.86286 24 7.21037 24ZM19.2585 24C18.606 24 18.0474 23.7686 17.5828 23.3058C17.1182 22.843 16.8858 22.2867 16.8858 21.6368C16.8858 20.987 17.1182 20.4306 17.5828 19.9678C18.0474 19.5051 18.606 19.2737 19.2585 19.2737C19.911 19.2737 20.4695 19.5051 20.9341 19.9678C21.3988 20.4306 21.6311 20.987 21.6311 21.6368C21.6311 22.2867 21.3988 22.843 20.9341 23.3058C20.4695 23.7686 19.911 24 19.2585 24ZM6.10109 4.69565L9.05919 10.8338H17.5329L20.9224 4.69565H6.10109ZM4.99559 2.39386H22.7558C23.2283 2.39386 23.5826 2.59682 23.8189 3.00273C24.0551 3.40862 24.0603 3.81948 23.8343 4.23529L19.582 11.8772C19.3766 12.2762 19.0864 12.5857 18.7115 12.8056C18.3366 13.0256 17.9335 13.1355 17.5021 13.1355H8.50454L7.11793 15.6522H21.6311V17.954H7.2162C6.31527 17.954 5.63457 17.5678 5.17409 16.7954C4.71361 16.023 4.69393 15.2532 5.11505 14.4859L6.77898 11.5157L2.40709 2.30179H0V0H3.8517L4.99559 2.39386Z"
        fill="#000" />
</svg>
