<?xml version="1.0" encoding="UTF-8"?>
<svg version="1.1" viewBox="0 0 1948 1948" width="13" height="13"
    xmlns="http://www.w3.org/2000/svg">
    <path transform="translate(474,88)"
        d="m0 0h994l27 2 25 4 19 5 26 10 20 10 21 14 13 10 11 10 8 7 11 11 11 14 10 14 11 19 11 23 9 27 6 23 3 19 2 29v1267l-1 19-4 25-5 20-8 26-12 26-10 18-13 19-9 10-7 8-16 16-14 11-11 8-13 8-16 9-23 10-20 6-26 6-14 2-13 1h-1008l-22-2-27-6-20-6-17-7-16-8-16-9-17-12-13-11-10-9-9-9-18-22-11-17-9-16-10-22-7-21-5-20-3-21-1-11v-1309l3-26 5-22 10-29 13-27 11-17 12-16 12-14 5-5 16-15 20-15 21-13 23-11 22-8 21-5 27-4zm7 98-18 1-16 3-13 4-19 8-18 11-14 12-12 12-14 19-12 25-6 21-3 16v1306l5 24 5 16 8 16 7 12 8 10 9 10 10 10 17 12 19 10 16 6 19 4 18 2h995l22-3 19-5 16-7 16-9 11-8 12-11 8-8v-2h2l13-19 9-17 6-19 5-25 1-57v-1211l-1-37-4-20-5-18-8-16-6-11-12-16-7-7-1-2h-2v-2l-11-9-11-8-18-10-18-7-17-4-7-1-19-1z"
        fill="#222" />
    <path transform="translate(670,971)"
        d="m0 0h606l12 4 10 6 10 10 6 12 3 12v9l-2 10-5 12-7 9-7 6-10 5-11 3h-604l-12-4-9-5-9-8-6-10-4-11-1-5v-12l4-14 5-9 7-8 11-7 9-4z"
        fill="#222" />
    <path transform="translate(670,579)"
        d="m0 0h605l12 3 11 6 8 8 7 12 3 9 1 6v9l-3 13-5 10-7 9-14 9-9 3-10 1h-592l-13-2-12-6-10-9-4-5-5-10-3-12v-12l4-13 5-9 9-10 9-6z"
        fill="#222" />
    <path transform="translate(668,1364)"
        d="m0 0h412l12 3 11 7 7 7 6 10 5 14v14l-4 13-5 9-9 10-10 6-9 3-5 1h-408l-12-3-11-7-8-8-5-8-4-11-1-6v-12l5-16 6-9 9-9 14-7z"
        fill="#222" />
</svg>
